<?xml version="1.0" encoding="UTF-8" standalone="no"?>
<svg
   xmlns:dc="http://purl.org/dc/elements/1.1/"
   xmlns:cc="http://creativecommons.org/ns#"
   xmlns:rdf="http://www.w3.org/1999/02/22-rdf-syntax-ns#"
   xmlns:svg="http://www.w3.org/2000/svg"
   xmlns="http://www.w3.org/2000/svg"
   xmlns:sodipodi="http://sodipodi.sourceforge.net/DTD/sodipodi-0.dtd"
   xmlns:inkscape="http://www.inkscape.org/namespaces/inkscape"
   width="238"
   height="256"
   id="svg2"
   version="1.1"
   inkscape:version="1.0.1 (0767f8302a, 2020-10-17)"
   sodipodi:docname="sbs.svg">
  <defs
     id="defs4" />
  <sodipodi:namedview
     id="base"
     pagecolor="#000000"
     bordercolor="#666666"
     borderopacity="1.0"
     inkscape:pageopacity="0"
     inkscape:pageshadow="2"
     inkscape:zoom="2.0000001"
     inkscape:cx="165.64634"
     inkscape:cy="91.052271"
     inkscape:document-units="px"
     inkscape:current-layer="layer1"
     showgrid="false"
     inkscape:window-width="1920"
     inkscape:window-height="1015"
     inkscape:window-x="0"
     inkscape:window-y="0"
     inkscape:window-maximized="1"
     inkscape:document-rotation="0"
     showguides="true"
     inkscape:guide-bbox="true">
    <sodipodi:guide
       position="119.49438,281.17366"
       orientation="1,0"
       id="guide31" />
  </sodipodi:namedview>
  <metadata
     id="metadata7">
    <rdf:RDF>
      <cc:Work
         rdf:about="">
        <dc:format>image/svg+xml</dc:format>
        <dc:type
           rdf:resource="http://purl.org/dc/dcmitype/StillImage" />
        <dc:title></dc:title>
      </cc:Work>
    </rdf:RDF>
  </metadata>
  <g
     inkscape:label="Ebene 1"
     inkscape:groupmode="layer"
     id="layer1"
     transform="translate(0,-802.36218)">
    <g
       id="layer1-3"
       transform="matrix(2.976005,0,0,2.9760066,18.606315,829.96847)">
      <g
         id="g970"
         transform="matrix(0.24457902,0,0,0.24254255,5.9557937,-4.0208967)">
        <path
           id="path24"
           style="fill:none;stroke:#ff0000;stroke-width:3;stroke-linecap:round;stroke-miterlimit:4;stroke-dasharray:none;stroke-opacity:1"
           d="m 140.7296,135.57911 c 8.92847,15.48948 8.2625,27.78087 0.24582,39.47425 m -5.08609,5.54793 c -12.8521,12.02601 -29.99773,11.12445 -44.116203,0.45547 m -5.550016,-6.06397 c -8.035553,-11.97811 -8.126284,-25.43886 0.951739,-40.13361 m 4.675095,-5.20542 c 14.368645,-11.36662 30.776665,-10.66927 43.431595,-0.64493" />
        <g
           id="g889">
          <path
             id="path872"
             style="fill:none;stroke:#ff0000;stroke-width:3;stroke-linecap:round;stroke-miterlimit:4;stroke-dasharray:none;stroke-opacity:1"
             d="m 180.38726,146.87327 c 0.29188,2.40872 0.50997,14.2732 0.14182,16.84197" />
          <path
             id="path874"
             style="fill:none;stroke:#ff0000;stroke-width:3;stroke-linecap:round;stroke-miterlimit:4;stroke-dasharray:none;stroke-opacity:1"
             d="m 164.77955,147.12435 c 0.29188,2.40872 0.50997,14.2732 0.14182,16.84197" />
          <path
             id="path883"
             style="fill:none;stroke:#ff0000;stroke-width:3;stroke-linecap:round;stroke-miterlimit:4;stroke-dasharray:none;stroke-opacity:1"
             d="m 127.54161,148.5935 c 1.48134,3.79511 1.56257,9.93752 0.15975,12.99721" />
          <path
             style="fill:none;stroke:#ff0000;stroke-width:3;stroke-linecap:butt;stroke-linejoin:miter;stroke-miterlimit:4;stroke-dasharray:none;stroke-opacity:1"
             d="m 128.3589,155.57213 h 53.22344"
             id="path878" />
        </g>
        <g
           id="g946"
           transform="rotate(180,113.57715,155.75551)">
          <path
             id="path938"
             style="fill:none;stroke:#ff0000;stroke-width:3;stroke-linecap:round;stroke-miterlimit:4;stroke-dasharray:none;stroke-opacity:1"
             d="m 180.38726,146.87327 c 0.29188,2.40872 0.50997,14.2732 0.14182,16.84197" />
          <path
             id="path940"
             style="fill:none;stroke:#ff0000;stroke-width:3;stroke-linecap:round;stroke-miterlimit:4;stroke-dasharray:none;stroke-opacity:1"
             d="m 164.77955,147.12435 c 0.29188,2.40872 0.50997,14.2732 0.14182,16.84197" />
          <path
             id="path942"
             style="fill:none;stroke:#ff0000;stroke-width:3;stroke-linecap:round;stroke-miterlimit:4;stroke-dasharray:none;stroke-opacity:1"
             d="m 127.54161,148.5935 c 1.48134,3.79511 1.56257,9.93752 0.15975,12.99721" />
          <path
             style="fill:none;stroke:#ff0000;stroke-width:3;stroke-linecap:butt;stroke-linejoin:miter;stroke-miterlimit:4;stroke-dasharray:none;stroke-opacity:1"
             d="m 128.3589,155.57213 h 53.22344"
             id="path944" />
        </g>
        <g
           id="g936"
           transform="rotate(90,113.36543,156.02952)">
          <path
             id="path928"
             style="fill:none;stroke:#ff0000;stroke-width:3;stroke-linecap:round;stroke-miterlimit:4;stroke-dasharray:none;stroke-opacity:1"
             d="m 180.38726,146.87327 c 0.29188,2.40872 0.50997,14.2732 0.14182,16.84197" />
          <path
             id="path930"
             style="fill:none;stroke:#ff0000;stroke-width:3;stroke-linecap:round;stroke-miterlimit:4;stroke-dasharray:none;stroke-opacity:1"
             d="m 164.77955,147.12435 c 0.29188,2.40872 0.50997,14.2732 0.14182,16.84197" />
          <path
             id="path932"
             style="fill:none;stroke:#ff0000;stroke-width:3;stroke-linecap:round;stroke-miterlimit:4;stroke-dasharray:none;stroke-opacity:1"
             d="m 127.54161,148.5935 c 1.48134,3.79511 1.56257,9.93752 0.15975,12.99721" />
          <path
             style="fill:none;stroke:#ff0000;stroke-width:3;stroke-linecap:butt;stroke-linejoin:miter;stroke-miterlimit:4;stroke-dasharray:none;stroke-opacity:1"
             d="m 128.3589,155.57213 h 53.22344"
             id="path934" />
        </g>
        <g
           id="g926"
           transform="rotate(-90,113.71375,154.95118)">
          <path
             id="path918"
             style="fill:none;stroke:#ff0000;stroke-width:3;stroke-linecap:round;stroke-miterlimit:4;stroke-dasharray:none;stroke-opacity:1"
             d="m 180.38726,146.87327 c 0.29188,2.40872 0.50997,14.2732 0.14182,16.84197" />
          <path
             id="path920"
             style="fill:none;stroke:#ff0000;stroke-width:3;stroke-linecap:round;stroke-miterlimit:4;stroke-dasharray:none;stroke-opacity:1"
             d="m 164.77955,147.12435 c 0.29188,2.40872 0.50997,14.2732 0.14182,16.84197" />
          <path
             id="path922"
             style="fill:none;stroke:#ff0000;stroke-width:3;stroke-linecap:round;stroke-miterlimit:4;stroke-dasharray:none;stroke-opacity:1"
             d="m 127.54161,148.5935 c 1.48134,3.79511 1.56257,9.93752 0.15975,12.99721" />
          <path
             style="fill:none;stroke:#ff0000;stroke-width:3;stroke-linecap:butt;stroke-linejoin:miter;stroke-miterlimit:4;stroke-dasharray:none;stroke-opacity:1"
             d="m 128.3589,155.57213 h 53.22344"
             id="path924" />
        </g>
        <path
           id="path880"
           style="fill:#ff0002;fill-opacity:1;stroke:none;stroke-width:1.39214;stroke-linecap:round;stroke-miterlimit:4;stroke-dasharray:none;stroke-opacity:1"
           d="m 113.83132,152.07495 c 1.93299,0 3.5,1.56701 3.5,3.5 0,1.93301 -1.56701,3.5 -3.5,3.5 -1.93299,0 -3.5,-1.56699 -3.5,-3.5 0,-1.93299 1.56701,-3.5 3.5,-3.5" />
      </g>
    </g>
  </g>
</svg>
